<svg width="517" height="533" viewBox="0 0 517 533" fill="none" xmlns="http://www.w3.org/2000/svg">
<circle cx="82" cy="93" r="57" stroke="#191919" stroke-width="50"/>
<circle cx="245.446" cy="439.446" r="68.4459" stroke="#191919" stroke-width="50"/>
<path d="M267.292 271.612V300.971C267.292 312.153 258.228 321.218 247.046 321.218C235.864 321.218 226.799 312.153 226.799 300.971V271.612C226.799 264.982 224.165 258.623 219.477 253.934L148.244 182.703C141.28 175.739 140.613 164.67 146.69 156.92C153.811 147.84 167.22 146.909 175.527 154.919L229.374 206.839C239.185 216.299 254.767 216.157 264.404 206.52L294.886 176.038C303.085 167.839 316.464 168.126 324.303 176.669C331.681 184.709 331.415 197.134 323.699 204.85L274.615 253.934C269.926 258.623 267.292 264.982 267.292 271.612Z" fill="#191919" stroke="#191919"/>
<circle cx="423.446" cy="93.4459" r="93.4459" fill="#0DCBE7"/>
</svg>
